HIERARCHY
ROOT Hips
{
	OFFSET 0.000000 0.000000 0.000000
	CHANNELS 6 Xposition Yposition Zposition Zrotation Xrotation Yrotation
	JOINT Spine1
	{
		OFFSET 0.000000 -2.082711 -0.000001
		CHANNELS 6 Xposition Yposition Zposition Zrotation Xrotation Yrotation
		JOINT Neck
		{
			OFFSET 0.000000 -1.660410 -0.000001
			CHANNELS 6 Xposition Yposition Zposition Zrotation Xrotation Yrotation
			JOINT Head
			{
				OFFSET 0.000000 -1.055760 -0.136227
				CHANNELS 6 Xposition Yposition Zposition Zrotation Xrotation Yrotation
				End Site
				{
					OFFSET 0.000000 -1.362267 -0.000000
				}
			}
		}
		JOINT LeftShoulder
		{
			OFFSET 0.274325 -1.340693 0.036009
			CHANNELS 6 Xposition Yposition Zposition Zrotation Xrotation Yrotation
			JOINT LeftArm
			{
				OFFSET 0.978870 0.000000 0.000000
				CHANNELS 6 Xposition Yposition Zposition Zrotation Xrotation Yrotation
				JOINT LeftForeArm
				{
					OFFSET 1.919408 0.000000 0.000000
					CHANNELS 6 Xposition Yposition Zposition Zrotation Xrotation Yrotation
					JOINT LeftHand
					{
						OFFSET 1.783837 0.000000 0.000000
						CHANNELS 6 Xposition Yposition Zposition Zrotation Xrotation Yrotation
						End Site
						{
							OFFSET 1.021700 0.000000 0.000000
						}
					}
				}
			}
		}
		JOINT RightShoulder
		{
			OFFSET -0.270541 -1.340693 0.036009
			CHANNELS 6 Xposition Yposition Zposition Zrotation Xrotation Yrotation
			JOINT RightArm
			{
				OFFSET -0.978870 0.000000 0.000000
				CHANNELS 6 Xposition Yposition Zposition Zrotation Xrotation Yrotation
				JOINT RightForeArm
				{
					OFFSET -1.919407 0.000000 0.000000
					CHANNELS 6 Xposition Yposition Zposition Zrotation Xrotation Yrotation
					JOINT RightHand
					{
						OFFSET -1.783838 0.000000 0.000000
						CHANNELS 6 Xposition Yposition Zposition Zrotation Xrotation Yrotation
						End Site
						{
							OFFSET -1.021700 0.000000 0.000000
						}
					}
				}
			}
		}
	}
	JOINT LeftUpLeg
	{
		OFFSET 0.681135 0.000000 0.000000
		CHANNELS 6 Xposition Yposition Zposition Zrotation Xrotation Yrotation
		JOINT LeftLeg
		{
			OFFSET 0.000000 2.864618 0.000001
			CHANNELS 6 Xposition Yposition Zposition Zrotation Xrotation Yrotation
			JOINT LeftFoot
			{
				OFFSET 0.000000 3.003225 0.000001
				CHANNELS 6 Xposition Yposition Zposition Zrotation Xrotation Yrotation
				JOINT LeftToeBase
				{
					OFFSET 0.000000 0.442738 -1.021702
					CHANNELS 6 Xposition Yposition Zposition Zrotation Xrotation Yrotation
					End Site
					{
						OFFSET 0.000000 0.000000 -0.272454
					}
				}
			}
		}
	}
	JOINT RightUpLeg
	{
		OFFSET -0.681135 0.000000 0.000000
		CHANNELS 6 Xposition Yposition Zposition Zrotation Xrotation Yrotation
		JOINT RightLeg
		{
			OFFSET 0.000000 2.864618 0.000001
			CHANNELS 6 Xposition Yposition Zposition Zrotation Xrotation Yrotation
			JOINT RightFoot
			{
				OFFSET 0.000000 3.003225 0.000001
				CHANNELS 6 Xposition Yposition Zposition Zrotation Xrotation Yrotation
				JOINT RightToeBase
				{
					OFFSET 0.000000 0.442738 -1.021702
					CHANNELS 6 Xposition Yposition Zposition Zrotation Xrotation Yrotation
					End Site
					{
						OFFSET 0.000000 0.000000 -0.272454
					}
				}
			}
		}
	}
}
MOTION
Frames: 10
Frame Time: 0.016667
0.235519 -5.591425 0.323216 -1.036537 11.692702 -2.063713 -0.000000 -2.082710 -0.000001 -4.292851 -5.214870 0.868075 0.000000 -1.660411 -0.000000 -2.207784 5.818936 -2.331858 0.000000 -1.055759 -0.136227 4.127322 9.736835 -3.690400 0.274325 -1.340692 0.036009 -21.918743 -8.222477 -3.392331 0.978869 0.000002 0.000000 9.884624 -8.500578 9.824423 1.919407 -0.000000 -0.000000 -2.331763 -9.758267 1.536677 1.783837 -0.000000 -0.000000 7.202504 -9.891759 -2.650197 -0.270541 -1.340693 0.036009 18.700360 -2.483111 7.325497 -0.978871 0.000000 -0.000000 6.375211 21.163481 -21.765284 -1.919408 0.000000 -0.000000 49.631098 -31.272042 -68.032543 -1.783839 -0.000000 0.000000 28.535257 2.129754 -7.510523 0.681135 0.000000 -0.000000 -27.610278 -26.778752 -30.265012 -0.000000 2.864618 0.000001 11.922817 31.906682 -12.187198 -0.000001 3.003226 0.000001 8.038777 -1.894826 -14.992248 -0.000000 0.442738 -1.021702 0.000001 0.000003 -0.000001 -0.681135 -0.000000 -0.000000 31.660659 -28.103150 10.651612 0.000001 2.864617 0.000000 -34.594543 29.334498 32.341379 0.000001 3.003226 0.000001 9.352138 -9.948711 33.594794 -0.000000 0.442738 -1.021702 0.000001 0.000003 0.000000 
0.240323 -5.586973 0.321657 -1.063224 11.615353 -2.001370 0.000000 -2.082710 -0.000001 -4.339048 -5.129504 0.812981 -0.000000 -1.660411 -0.000000 -2.147338 5.846134 -2.330135 0.000000 -1.055760 -0.136227 4.146787 9.783688 -3.683740 0.274325 -1.340692 0.036009 -21.893036 -8.213676 -3.408541 0.978871 0.000000 0.000000 9.929724 -8.494434 9.810686 1.919407 0.000001 0.000000 -2.339272 -9.790747 1.520087 1.783838 -0.000000 0.000000 7.243414 -9.926322 -2.665010 -0.270541 -1.340693 0.036009 18.684852 -2.451066 7.317157 -0.978870 0.000001 -0.000000 6.231262 21.139722 -21.715649 -1.919408 -0.000001 -0.000000 49.680761 -31.463058 -68.289713 -1.783839 -0.000002 -0.000000 28.392864 2.158396 -7.491776 0.681135 -0.000000 -0.000000 -27.770388 -26.708319 -30.318441 0.000000 2.864616 0.000000 12.267240 32.168053 -12.378154 -0.000000 3.003226 0.000001 8.090911 -2.276133 -14.986613 -0.000000 0.442738 -1.021702 -0.000002 0.000000 -0.000003 -0.681135 -0.000000 -0.000000 31.939471 -27.840206 10.763813 0.000000 2.864616 0.000000 -34.932531 29.074999 32.780496 0.000001 3.003227 0.000001 8.940714 -10.106082 33.571520 -0.000000 0.442738 -1.021702 -0.000001 0.000002 0.000007 
0.245366 -5.582248 0.320237 -1.068966 11.559264 -1.922360 -0.000000 -2.082710 -0.000001 -4.409324 -5.068051 0.737458 -0.000000 -1.660409 -0.000001 -2.075765 5.890147 -2.330540 -0.000000 -1.055760 -0.136228 4.124758 9.790726 -3.667312 0.274325 -1.340691 0.036009 -21.897573 -8.232289 -3.401766 0.978870 0.000001 0.000000 9.995399 -8.461341 9.773399 1.919407 0.000001 0.000000 -2.313398 -9.834808 1.493551 1.783836 -0.000001 -0.000000 7.218123 -9.972575 -2.695989 -0.270541 -1.340691 0.036009 18.653192 -2.460188 7.290708 -0.978870 0.000000 0.000000 6.077910 21.078206 -21.641871 -1.919407 -0.000000 -0.000000 49.790932 -31.566143 -68.535341 -1.783839 -0.000001 -0.000001 28.353811 2.320458 -7.512534 0.681135 -0.000000 -0.000000 -27.944783 -26.674515 -30.441306 -0.000001 2.864616 0.000001 12.534687 32.459822 -12.648611 -0.000001 3.003225 0.000001 8.151603 -2.618929 -14.819550 0.000000 0.442737 -1.021703 -0.000002 -0.000002 0.000003 -0.681135 -0.000000 -0.000000 32.197778 -27.618299 10.885143 -0.000000 2.864616 0.000000 -35.252037 28.832558 33.182319 0.000001 3.003227 0.000001 8.596790 -10.093368 33.507142 -0.000000 0.442738 -1.021702 0.000001 0.000001 0.000006 
0.249755 -5.577889 0.317985 -1.088414 11.506850 -1.801711 0.000000 -2.082710 -0.000001 -4.458332 -5.010699 0.628738 -0.000000 -1.660410 -0.000001 -2.060392 5.922370 -2.313157 -0.000000 -1.055760 -0.136228 4.175011 9.828403 -3.659124 0.274325 -1.340692 0.036009 -21.894180 -8.239300 -3.419212 0.978871 -0.000001 0.000000 10.054243 -8.552978 9.789030 1.919408 -0.000000 0.000000 -2.295183 -9.782947 1.414842 1.783836 0.000001 -0.000000 7.287102 -9.921169 -2.648699 -0.270540 -1.340692 0.036009 18.612284 -2.416809 7.309620 -0.978870 -0.000001 -0.000000 5.939290 20.972521 -21.655118 -1.919408 -0.000002 -0.000001 49.931801 -31.649307 -68.719278 -1.783839 -0.000001 -0.000001 28.326825 2.494661 -7.509036 0.681135 -0.000000 -0.000000 -28.121345 -26.595326 -30.343815 -0.000000 2.864617 0.000000 12.974130 32.684501 -12.881071 -0.000001 3.003226 0.000001 8.037113 -2.956095 -14.918979 0.000000 0.442738 -1.021701 -0.000001 0.000001 -0.000000 -0.681135 0.000000 -0.000000 32.420528 -27.427280 10.898227 -0.000001 2.864616 0.000000 -35.522776 28.590952 33.464030 0.000001 3.003225 0.000001 8.074251 -10.162521 33.408689 0.000000 0.442738 -1.021703 -0.000002 -0.000001 -0.000002 
0.254059 -5.573362 0.316099 -1.086094 11.461598 -1.668870 0.000000 -2.082710 -0.000000 -4.543021 -4.954989 0.525212 -0.000000 -1.660411 -0.000001 -2.034180 5.964410 -2.312901 -0.000000 -1.055760 -0.136228 4.225751 9.834691 -3.665746 0.274325 -1.340692 0.036009 -21.874900 -8.253658 -3.413154 0.978870 0.000001 0.000000 10.100500 -8.616397 9.741962 1.919407 0.000000 0.000000 -2.265942 -9.772612 1.391072 1.783838 -0.000000 0.000001 7.245028 -9.913427 -2.692538 -0.270541 -1.340693 0.036009 18.569357 -2.393968 7.303180 -0.978870 0.000002 0.000000 5.849533 20.898897 -21.675301 -1.919407 -0.000001 -0.000000 49.949918 -31.773681 -68.939907 -1.783838 -0.000001 0.000001 28.391857 2.503118 -7.609807 0.681135 -0.000000 0.000000 -28.314857 -26.520636 -30.373933 -0.000001 2.864617 0.000001 13.317505 32.920412 -12.963118 -0.000001 3.003226 0.000001 7.954046 -3.264357 -15.024338 -0.000000 0.442738 -1.021702 0.000003 -0.000002 0.000006 -0.681135 -0.000001 0.000000 32.567254 -27.266667 10.908062 0.000000 2.864616 0.000000 -35.647181 28.389977 33.647011 0.000001 3.003227 0.000001 7.301286 -10.174130 33.200388 0.000000 0.442738 -1.021702 -0.000001 -0.000001 0.000004 
0.258224 -5.569275 0.314541 -1.079801 11.444872 -1.531959 0.000000 -2.082711 -0.000001 -4.610150 -4.961213 0.411398 0.000000 -1.660411 -0.000000 -2.023289 6.045551 -2.298779 -0.000000 -1.055762 -0.136227 4.253070 9.835311 -3.656444 0.274326 -1.340694 0.036009 -21.899443 -8.238335 -3.440487 0.978869 0.000000 0.000000 10.199410 -8.730968 9.770184 1.919407 0.000000 -0.000000 -2.271909 -9.716531 1.312984 1.783839 -0.000000 -0.000000 7.305847 -9.861752 -2.716573 -0.270541 -1.340693 0.036009 18.554424 -2.414353 7.271116 -0.978871 -0.000001 0.000000 5.704956 20.933833 -21.670787 -1.919408 -0.000001 -0.000000 50.126625 -31.891260 -69.047625 -1.783839 -0.000000 -0.000002 28.441594 2.617648 -7.573604 0.681135 -0.000000 -0.000000 -28.470371 -26.514543 -30.398863 -0.000000 2.864617 0.000000 13.536715 33.161545 -13.244743 -0.000000 3.003225 0.000001 7.910361 -3.483265 -14.905500 -0.000000 0.442738 -1.021702 0.000001 -0.000001 0.000002 -0.681135 0.000000 -0.000000 32.707782 -27.137580 10.913835 0.000000 2.864617 0.000000 -35.732835 28.170924 33.780914 0.000001 3.003226 0.000001 6.657713 -9.971959 32.852534 0.000000 0.442738 -1.021702 -0.000002 -0.000001 0.000008 
0.262260 -5.565229 0.313363 -1.090556 11.453000 -1.402160 -0.000000 -2.082710 -0.000001 -4.711012 -4.988903 0.327617 0.000000 -1.660411 -0.000000 -1.950736 6.108076 -2.319681 -0.000000 -1.055762 -0.136228 4.263308 9.841503 -3.667961 0.274325 -1.340693 0.036009 -21.845510 -8.223868 -3.453272 0.978870 -0.000001 0.000000 10.233597 -8.733017 9.761479 1.919408 -0.000000 0.000000 -2.223907 -9.693980 1.250555 1.783839 -0.000000 0.000000 7.266647 -9.840753 -2.727978 -0.270541 -1.340693 0.036009 18.569905 -2.407224 7.251398 -0.978871 0.000001 -0.000000 5.581247 20.825059 -21.671581 -1.919408 -0.000002 -0.000001 50.092553 -31.982525 -69.307036 -1.783839 0.000000 0.000000 28.362873 2.654953 -7.685178 0.681135 -0.000000 -0.000000 -28.601038 -26.529959 -30.432266 -0.000000 2.864617 0.000001 13.754271 33.391777 -13.357149 -0.000001 3.003225 0.000001 7.886274 -3.700237 -14.936444 -0.000001 0.442738 -1.021701 0.000002 0.000001 0.000003 -0.681135 -0.000000 -0.000000 32.885995 -27.036844 10.911487 -0.000001 2.864615 0.000000 -35.846622 27.913112 33.891170 0.000001 3.003227 0.000001 6.019413 -9.595845 32.426439 0.000000 0.442738 -1.021702 -0.000001 0.000003 0.000003 
0.267112 -5.561442 0.312740 -1.126477 11.481845 -1.256149 0.000000 -2.082710 -0.000001 -4.744642 -5.037859 0.237852 -0.000000 -1.660408 -0.000001 -1.929674 6.194925 -2.318260 0.000000 -1.055760 -0.136227 4.281360 9.813432 -3.666832 0.274325 -1.340691 0.036009 -21.869712 -8.205519 -3.506151 0.978870 -0.000002 -0.000000 10.302849 -8.836760 9.791502 1.919408 -0.000000 0.000000 -2.163272 -9.599821 1.149295 1.783838 0.000001 -0.000000 7.354364 -9.750488 -2.716364 -0.270541 -1.340691 0.036009 18.526968 -2.392194 7.215916 -0.978871 0.000001 -0.000000 5.470707 20.728002 -21.683141 -1.919407 0.000001 -0.000001 50.099735 -32.083099 -69.520083 -1.783839 0.000000 -0.000002 28.383328 2.698428 -7.715716 0.681135 0.000000 -0.000000 -28.705321 -26.572366 -30.404748 -0.000001 2.864618 0.000001 14.008458 33.609974 -13.573202 -0.000001 3.003226 0.000001 7.785843 -3.868035 -14.958222 0.000000 0.442737 -1.021702 0.000002 -0.000001 0.000005 -0.681135 0.000000 -0.000000 33.044332 -27.026954 10.966524 0.000000 2.864616 0.000000 -35.833157 27.782295 34.131610 0.000001 3.003225 0.000001 5.700986 -9.286102 31.803075 -0.000000 0.442738 -1.021702 0.000000 -0.000001 0.000004 
0.271135 -5.558078 0.311320 -1.141721 11.484510 -1.135211 0.000000 -2.082711 -0.000001 -4.805733 -5.054849 0.186212 0.000000 -1.660410 -0.000001 -1.907107 6.236472 -2.333322 0.000000 -1.055762 -0.136227 4.316484 9.836975 -3.687188 0.274325 -1.340690 0.036009 -21.831554 -8.180795 -3.548734 0.978870 -0.000000 0.000000 10.287849 -8.805791 9.778737 1.919407 0.000000 -0.000000 -2.105393 -9.532073 1.093316 1.783838 0.000000 -0.000001 7.436716 -9.688618 -2.752478 -0.270541 -1.340691 0.036009 18.518579 -2.436465 7.151103 -0.978871 0.000000 -0.000000 5.411503 20.796903 -21.674883 -1.919407 -0.000000 -0.000001 50.171247 -32.256347 -69.632645 -1.783839 -0.000001 -0.000000 28.338971 2.671333 -7.638738 0.681135 -0.000001 -0.000000 -28.814492 -26.596309 -30.385124 -0.000001 2.864617 0.000001 14.210956 33.825289 -13.685239 -0.000001 3.003225 0.000001 7.692085 -3.976376 -15.000149 -0.000000 0.442738 -1.021702 -0.000000 0.000001 0.000009 -0.681135 -0.000001 -0.000000 33.147048 -26.928758 10.891123 0.000000 2.864616 0.000001 -36.004198 27.512904 34.354554 0.000001 3.003226 0.000001 5.004158 -9.602739 31.795572 0.000000 0.442738 -1.021702 0.000000 0.000002 0.000010 
0.275686 -5.554721 0.310394 -1.175404 11.501597 -1.034188 -0.000000 -2.082710 -0.000001 -4.845522 -5.077432 0.136086 -0.000000 -1.660412 -0.000001 -1.874823 6.270093 -2.343964 0.000000 -1.055759 -0.136227 4.323370 9.835395 -3.694040 0.274326 -1.340693 0.036009 -21.824118 -8.177003 -3.577534 0.978869 -0.000000 0.000000 10.313380 -8.782258 9.762767 1.919408 0.000001 0.000000 -2.045901 -9.480478 1.029413 1.783837 0.000002 -0.000000 7.470702 -9.637881 -2.726681 -0.270541 -1.340692 0.036009 18.514163 -2.463214 7.143335 -0.978870 0.000001 0.000000 5.337011 20.727493 -21.699820 -1.919407 0.000000 -0.000001 50.080187 -32.356146 -69.867924 -1.783839 0.000000 -0.000000 28.307531 2.627643 -7.735177 0.681135 0.000001 0.000000 -28.889696 -26.645734 -30.330316 -0.000000 2.864617 0.000001 14.441163 34.004093 -13.975971 -0.000001 3.003226 0.000001 7.512155 -4.011038 -14.920970 0.000000 0.442738 -1.021703 0.000000 0.000000 0.000003 -0.681135 0.000001 0.000000 33.341767 -26.884869 10.872207 0.000000 2.864616 0.000001 -36.225220 27.348269 34.295432 0.000001 3.003226 0.000001 4.497504 -9.779696 31.868075 0.000000 0.442738 -1.021702 -0.000002 -0.000001 0.000004 
